<?xml version="1.0" encoding="utf-8"?>
<!-- Generator: Adobe Illustrator 16.0.0, SVG Export Plug-In . SVG Version: 6.00 Build 0)  -->
<!DOCTYPE svg PUBLIC "-//W3C//DTD SVG 1.1//EN" "http://www.w3.org/Graphics/SVG/1.1/DTD/svg11.dtd">
<svg version="1.1" id="Layer_1" xmlns="http://www.w3.org/2000/svg" xmlns:xlink="http://www.w3.org/1999/xlink" x="0px" y="0px"
	 width="169px" height="69.333px" viewBox="2.5 0 169 69.333" enable-background="new 2.5 0 169 69.333" xml:space="preserve">
<g>
	<path fill="#20295C" d="M6.224,41.573V18.875c0-1.863,0.128-3.411,0.384-4.642c0.257-1.231,0.676-2.428,1.256-3.59
		c1.112-2.291,2.761-4.073,4.95-5.347c2.188-1.273,4.685-1.911,7.489-1.911c3.933,0,7.237,1.317,9.913,3.95
		c2.675,2.633,4.014,5.874,4.014,9.72c0,3.471-1.189,6.305-3.565,8.502c-2.377,2.197-5.429,3.295-9.157,3.295
		c-0.461,0-0.833-0.004-1.116-0.013c-0.282-0.008-0.552-0.021-0.808-0.038v-9.286c0.086,0.018,0.18,0.03,0.283,0.039
		c0.102,0.008,0.247,0.013,0.436,0.013c0.975,0,1.77-0.291,2.385-0.872c0.616-0.581,0.924-1.325,0.924-2.231
		c0-0.838-0.303-1.556-0.911-2.154c-0.608-0.598-1.338-0.898-2.193-0.898c-1.111,0-1.906,0.393-2.385,1.181
		c-0.479,0.787-0.718,2.179-0.718,4.18v22.8H6.224z"/>
	<path fill="#20295C" d="M50.875,14.849h9.976V38.52c0,4.65-1.526,8.477-4.578,11.479c-3.052,3-6.903,4.5-11.554,4.5
		c-0.667,0-1.32-0.051-1.962-0.153s-1.296-0.267-1.961-0.487V44.78c0.478,0.258,0.953,0.443,1.422,0.564
		c0.471,0.119,0.97,0.179,1.5,0.179c2.068,0,3.74-0.558,5.014-1.666c1.273-1.112,1.987-2.644,2.142-4.592
		c-0.822,0.786-1.672,1.368-2.552,1.743c-0.881,0.377-1.834,0.564-2.859,0.564c-2.771,0-4.917-0.932-6.438-2.795
		s-2.282-4.505-2.282-7.925V14.849h10.233v12.542c0,1.419,0.149,2.377,0.449,2.872c0.299,0.497,0.799,0.745,1.5,0.745
		c0.701,0,1.201-0.257,1.5-0.77c0.299-0.512,0.449-1.462,0.449-2.847L50.875,14.849L50.875,14.849z"/>
	<path fill="#20295C" d="M64.955,30.392c0-1.83,0.047-3.223,0.141-4.181c0.095-0.957,0.252-1.864,0.475-2.718
		c0.769-2.976,2.15-5.283,4.142-6.925c1.992-1.642,4.416-2.461,7.271-2.461c1.983,0,3.816,0.449,5.502,1.346
		c1.684,0.898,3.073,2.167,4.167,3.809c0.855,1.283,1.469,2.701,1.847,4.257c0.375,1.556,0.564,3.847,0.564,6.873v11.183H78.83
		V28.903c0-1.402-0.15-2.355-0.449-2.859c-0.3-0.504-0.8-0.756-1.501-0.756c-0.701,0-1.201,0.261-1.5,0.782
		c-0.3,0.521-0.449,1.466-0.449,2.833v12.669h-9.977L64.955,30.392L64.955,30.392z"/>
	<path fill="#20295C" d="M115.375,39.008c-1.4,1.111-2.855,1.939-4.359,2.486c-1.504,0.549-3.111,0.821-4.82,0.821
		c-1.367,0-2.719-0.204-4.053-0.616c-1.333-0.41-2.589-1.015-3.77-1.818c-1.984-1.299-3.522-2.973-4.616-5.014
		c-1.095-2.043-1.643-4.254-1.643-6.63c0-1.864,0.36-3.655,1.078-5.373c0.718-1.718,1.744-3.235,3.077-4.553
		c1.35-1.367,2.88-2.411,4.591-3.128c1.71-0.718,3.488-1.077,5.335-1.077c4.119,0,7.504,1.407,10.156,4.219
		c2.647,2.812,3.974,6.45,3.974,10.913v0.564h-14.772c-0.461,0-0.804-0.197-1.025-0.59c-0.223-0.393-0.334-1.017-0.334-1.872
		s0.111-1.488,0.334-1.898c0.223-0.41,0.564-0.616,1.025-0.616h4.465v-0.103c0-0.889-0.312-1.595-0.937-2.116
		c-0.625-0.521-1.468-0.782-2.526-0.782c-1.334,0-2.41,0.539-3.23,1.616s-1.231,2.514-1.231,4.309c0,1.881,0.376,3.352,1.13,4.411
		c0.752,1.061,1.795,1.59,3.129,1.59c0.631,0,1.264-0.175,1.896-0.525c0.632-0.351,1.085-0.791,1.357-1.322L115.375,39.008z"/>
	<path fill="#20295C" d="M145.254,39.008c-1.4,1.111-2.855,1.939-4.359,2.486c-1.504,0.549-3.111,0.821-4.819,0.821
		c-1.369,0-2.72-0.204-4.054-0.616c-1.332-0.41-2.59-1.015-3.771-1.818c-1.983-1.299-3.522-2.973-4.616-5.014
		c-1.093-2.043-1.641-4.254-1.641-6.63c0-1.864,0.357-3.655,1.076-5.373c0.717-1.718,1.744-3.235,3.078-4.553
		c1.35-1.367,2.879-2.411,4.59-3.128c1.711-0.718,3.488-1.077,5.336-1.077c4.117,0,7.504,1.407,10.154,4.219
		s3.977,6.45,3.977,10.913v0.564h-14.773c-0.461,0-0.804-0.197-1.027-0.59c-0.221-0.393-0.331-1.017-0.331-1.872
		s0.11-1.488,0.331-1.898c0.225-0.41,0.566-0.616,1.027-0.616h4.463v-0.103c0-0.889-0.312-1.595-0.936-2.116
		s-1.466-0.782-2.525-0.782c-1.332,0-2.41,0.539-3.23,1.616s-1.23,2.514-1.23,4.309c0,1.881,0.375,3.352,1.129,4.411
		c0.752,1.061,1.795,1.59,3.129,1.59c0.631,0,1.265-0.175,1.896-0.525c0.633-0.351,1.086-0.791,1.358-1.322L145.254,39.008z"/>
	<path fill="#20295C" d="M163.154,30.289v11.284h-10.231V28.544c0-2.94,0.272-5.237,0.821-6.886
		c0.547-1.649,1.479-3.116,2.795-4.398c0.992-0.992,2.15-1.765,3.477-2.321c1.323-0.556,2.653-0.833,3.987-0.833
		c0.649,0,1.291,0.025,1.925,0.077c0.633,0.052,1.247,0.128,1.846,0.23v10.771c-0.119-0.016-0.299-0.042-0.539-0.077
		c-0.562-0.085-0.924-0.128-1.074-0.128c-1.112,0-1.891,0.359-2.335,1.077C163.378,26.775,163.154,28.185,163.154,30.289z"/>
</g>
</svg>
